{"title":"Face[1997]DVDRIP[Eng]","uid":14418668,"size":1467647957,"categoryP":"video","categoryS":"movies","magnet":"?xt=urn:btih:b6905ed38879277a277d8f72183c1a48fe0b1a43&amp;dn=Face%5B1997%5DDVDRIP%5BEng%5D&amp;tr=udp%3A%2F%2Ftracker.leechers-paradise.org%3A6969&amp;tr=udp%3A%2F%2Fzer0day.ch%3A1337&amp;tr=udp%3A%2F%2Fopen.demonii.com%3A1337&amp;tr=udp%3A%2F%2Ftracker.coppersurfer.tk%3A6969&amp;tr=udp%3A%2F%2Fexodus.desync.com%3A6969","seeders":0,"leechers":1,"uploader":"Fanchig","files":2,"time":1461520215,"description":"Ray is an aging ex-socialist who has become a bankrobber after seeing the demise of socialism in 1980s Britain. Teaming up with a gang of other has-beenish crims, he commits one bank job...\r\n\r\nGeneral\r\nFormat : Matroska\r\nFormat version : Version 4 / Version 2\r\nFile size : 1.37 GiB\r\nDuration : 1h 41mn\r\nOverall bit rate : 1 935 Kbps\r\nEncoded date : UTC 2015-11-28 21:51:21\r\nWriting application : mkvmerge v8.3.0 ('Over the Horizon') 64bit\r\nWriting library : libebml v1.3.1 + libmatroska v1.4.2\r\nDURATION : 01:34:27.519000000\r\nNUMBER_OF_FRAMES : 1046\r\nNUMBER_OF_BYTES : 31137\r\n_STATISTICS_WRITING_APP : mkvmerge v8.3.0 ('Over the Horizon') 64bit\r\n_STATISTICS_WRITING_DATE_UTC : 2015-11-28 21:51:21\r\n_STATISTICS_TAGS : BPS DURATION NUMBER_OF_FRAMES NUMBER_OF_BYTES\r\n\r\nVideo\r\nID : 1\r\nFormat : AVC\r\nFormat/Info : Advanced Video Codec\r\nFormat profile :   \r\nFormat settings, CABAC : Yes\r\nFormat settings, ReFrames : 4 frames\r\nCodec ID : V_MPEG4/ISO/AVC\r\nDuration : 1h 41mn\r\nBit rate : 1 741 Kbps\r\nWidth : 720 pixels\r\nHeight : 586 pixels\r\nDisplay aspect ratio : 16:9\r\nFrame rate mode : Constant\r\nFrame rate : 25.000 fps\r\nColor space : YUV\r\nChroma subsampling : 4:2:0\r\nBit depth : 8 bits\r\nScan type : Progressive\r\nBits/(Pixel*Frame) : 0.165\r\nStream size : 1.20 GiB (88%)\r\nWriting library : x264 core 142 r2479 dd79a61\r\nEncoding settings : cabac=1 / ref=3 / deblock=1:-1:-1 / analyse=0x3:0x113 / me=hex / subme=7 / psy=1 / psy_rd=1.00:0.15 / mixed_ref=1 / me_range=16 / chroma_me=1 / trellis=1 / 8x8dct=1 / cqm=0 / deadzone=21,11 / fast_pskip=1 / chroma_qp_offset=-3 / threads=6 / lookahead_threads=1 / sliced_threads=0 / nr=0 / decimate=1 / interlaced=0 / bluray_compat=0 / constrained_intra=0 / bframes=3 / b_pyramid=2 / b_adapt=1 / b_bias=0 / direct=1 / weightb=1 / open_gop=0 / weightp=2 / keyint=250 / keyint_min=25 / scenecut=40 / intra_refresh=0 / rc_lookahead=40 / rc=2pass / mbtree=1 / bitrate=1741 / ratetol=1.0 / qcomp=0.60 / qpmin=0 / qpmax=69 / qpstep=4 / cplxblur=20.0 / qblur=0.5 / vbv_maxrate=12500 / vbv_bufsize=12500 / nal_hrd=none / filler=0 / ip_ratio=1.40 / aq=1:1.00\r\nDefault : Yes\r\nForced : No\r\nColor range : Limited\r\nColor primaries : BT.601 PAL\r\nTransfer characteristics : BT.709\r\nMatrix coefficients : BT.601\r\nDURATION : 01:41:08.880000000\r\nNUMBER_OF_FRAMES : 151722\r\nNUMBER_OF_BYTES : 1320492875\r\n_STATISTICS_WRITING_APP : mkvmerge v8.3.0 ('Over the Horizon') 64bit\r\n_STATISTICS_WRITING_DATE_UTC : 2015-11-28 21:51:21\r\n_STATISTICS_TAGS : BPS DURATION NUMBER_OF_FRAMES NUMBER_OF_BYTES\r\n\r\nAudio\r\nID : 2\r\nFormat : AC-3\r\nFormat/Info : Audio Coding 3\r\nMode extension : CM (complete main)\r\nFormat settings, Endianness : Big\r\nCodec ID : A_AC3\r\nDuration : 1h 41mn\r\nBit rate mode : Constant\r\nBit rate : 192 Kbps\r\nChannel(s) : 2 channels\r\nChannel positions : Front: L R\r\nSampling rate : 48.0 KHz\r\nCompression mode : Lossy\r\nStream size : 139 MiB (10%)\r\nTitle : Stereo\r\nLanguage : English\r\nDefault : Yes\r\nForced : No\r\nDURATION : 01:41:08.864000000\r\nNUMBER_OF_FRAMES : 189652\r\nNUMBER_OF_BYTES : 145652736\r\n_STATISTICS_WRITING_APP : mkvmerge v8.3.0 ('Over the Horizon') 64bit\r\n_STATISTICS_WRITING_DATE_UTC : 2015-11-28 21:51:21\r\n_STATISTICS_TAGS : BPS DURATION NUMBER_OF_FRAMES NUMBER_OF_BYTES\r\n\r\nText #1\r\nID : 3\r\nFormat : UTF-8\r\nCodec ID : S_TEXT/UTF8\r\nCodec ID/Info : UTF-8 Plain Text\r\nLanguage : English\r\nDefault : No\r\nForced : No\r\n\r\nText #2\r\nID : 4\r\nFormat : UTF-8\r\nCodec ID : S_TEXT/UTF8\r\nCodec ID/Info : UTF-8 Plain Text\r\nLanguage : French\r\nDefault : No\r\nForced : No\r\n\r\nMenu\r\n00:00:00.000 : :Chapter 1\r\n00:07:43.400 : :Chapter 2\r\n00:12:16.320 : :Chapter 3\r\n00:19:38.600 : :Chapter 4\r\n00:29:16.240 : :Chapter 5\r\n00:42:54.360 : :Chapter 6\r\n00:51:48.320 : :Chapter 7\r\n00:58:30.000 : :Chapter 8\r\n01:07:27.600 : :Chapter 9\r\n01:15:44.080 : :Chapter 10\r\n01:23:54.200 : :Chapter 11\r\n01:31:40.760 : :Chapter 12","torrent":{"xt":"urn:btih:b6905ed38879277a277d8f72183c1a48fe0b1a43","amp;dn":"Face%5B1997%5DDVDRIP%5BEng%5D","amp;tr":["udp%3A%2F%2Ftracker.leechers-paradise.org%3A6969","udp%3A%2F%2Fzer0day.ch%3A1337","udp%3A%2F%2Fopen.demonii.com%3A1337","udp%3A%2F%2Ftracker.coppersurfer.tk%3A6969","udp%3A%2F%2Fexodus.desync.com%3A6969"],"infoHash":"b6905ed38879277a277d8f72183c1a48fe0b1a43","infoHashBuffer":{"type":"Buffer","data":[182,144,94,211,136,121,39,122,39,125,143,114,24,60,26,72,254,11,26,67]},"announce":[],"urlList":[]}}